<?xml version="1.0" encoding="UTF-8"?>
<svg id="Layer_1" data-name="Layer 1" xmlns="http://www.w3.org/2000/svg" viewBox="560 650 3100 820">
  <defs>
    <style>
      .cls-1 {
        fill: #a0c092;
      }

      .cls-2 {
        fill: #253d79;
      }
    </style>
  </defs>
  <path class="cls-2" d="M2139.36,1232.89c-17.7-54-16.35-109.21,2.92-160.47,48.77-129.7,202.01-184.98,318.04-112.25l.11-173.66c.02-34.25,28.05-58.7,60.02-59.3,31.27-.58,61.1,24.3,61.11,59.73l.17,532.19c0,29.1-20.94,51.9-45.67,58.46-28.05,7.45-56.73-5.38-69.55-30.98-35.75,25.73-75.27,37.23-118.53,36.96-95.24-.58-178.44-58.65-208.62-150.68ZM2462.8,1155.75c0-59.31-48.1-107.38-107.43-107.38s-107.43,48.08-107.43,107.38,48.1,107.38,107.43,107.38,107.43-48.08,107.43-107.38Z"/>
  <path class="cls-2" d="M1678.82,1309.96c-69.64-80.01-76.21-195.73-19.07-282.87,54.63-83.32,156.78-119.11,251.39-88.44l43.5,21.41.13-173.51c.03-34.45,27.61-58.91,59.65-59.35,31.16-.42,61.64,24.03,61.66,59.7l.34,529.2c.75,30.97-18.92,54.88-46.02,61.95-28.21,7.36-56.88-5.59-69.75-31.23-84.73,62.95-213.4,41.75-281.83-36.86ZM1958.34,1155.73c0-59.54-48.29-107.81-107.86-107.81s-107.86,48.27-107.86,107.81,48.29,107.81,107.86,107.81,107.86-48.27,107.86-107.81Z"/>
  <path class="cls-2" d="M982.88,1217.7c30.01-25.76,71.26-21.8,94.05,7.7,22.38,28.98,14.9,66.98-14.34,91.26-117.17,97.3-291.08,100.02-409.35,1.73-147.47-122.56-159.67-361.1-18.55-501.41,83.63-83.14,203.24-112.1,315.9-77.26,45,13.92,86.19,36.17,118.9,69.59,25.71,26.26,22.62,65.38-1.04,88.84-26.05,25.84-61.83,22.5-89.4-.14-92.12-75.66-226.55-50.35-285.66,52.83-58.46,102.04-22.88,249.16,89.67,295.73,68.79,28.47,144.56,18.56,199.82-28.87Z"/>
  <path class="cls-2" d="M1582.07,1155.84c0,126.82-102.86,229.63-229.73,229.63s-229.73-102.81-229.73-229.63,102.86-229.63,229.73-229.63,229.73,102.81,229.73,229.63ZM1460.76,1155.84c0-59.75-48.46-108.19-108.24-108.19s-108.24,48.44-108.24,108.19,48.46,108.19,108.24,108.19,108.24-48.44,108.24-108.19Z"/>
  <path class="cls-2" d="M2968.5,1226.15c34.77,55.57,114.18,59.25,162.4,16.49,24.35-21.59,55.48-23.56,79.22-1.22,21.63,20.35,24.23,57.84-.67,80.31-60.74,54.84-146.35,73.92-225.33,51.12-116.55-33.65-175.41-154.83-147.9-268.17,16.61-68.42,65.72-123.31,123.94-147.71,72.04-30.19,149.08-22.43,208.73,19.94,41.64,29.58,67.05,73.63,67.65,123.77.37,30.63-18.6,57.75-47.71,65.65l-220.33,59.81ZM3121.96,1095.81c-16.55-50.8-81.72-58.51-123.71-36.28-28.86,15.28-50.34,47.56-51.4,82.44l175.11-46.16Z"/>
  <path class="cls-2" d="M3579.84,1322.69c-72.12,96.63-259.14,61.07-295.24-4.71-13.03-23.75-7.35-52.49,12.77-68.36,20.39-16.08,48.41-14.02,69.85,3.32,52.1,42.12,121.6,31.96,124.13-1.21.83-10.88-6.36-23.54-17.82-27.33l-49.06-16.24-75.59-26.34c-32.48-15.07-54.68-41.47-61.84-76.46-12.1-59.16,15.1-116.4,69.61-143.37,64.9-32.1,162.06-24.97,211.9,20.49,21.66,19.75,25.17,51.39,6.61,73.26-17.56,20.68-48.38,24.29-71.71,7.03-44.32-32.8-106.02-22.79-106.42,9.82-.11,8.69,8.73,20.55,19.17,23.7l89.49,27.02c30.82,9.31,60.54,25.89,78.96,53.22,29.56,43.82,26.54,104.15-4.81,146.16Z"/>
  <path class="cls-2" d="M2772.28,1320c.03,36.38-31.4,60.83-63.05,59.61-33.62-1.29-58.83-27.67-58.83-63.52v-316.78c.01-35.17,26.76-58.75,58.94-60.38,30.11-1.53,62.69,20.93,62.71,55.52l.23,325.54Z"/>
  <circle class="cls-1" cx="2711.16" cy="844.51" r="62.56"/>
</svg>
