<?xml version="1.0" encoding="UTF-8"?>
<svg id="Layer_1" data-name="Layer 1" xmlns="http://www.w3.org/2000/svg" viewBox="250 220 1500 1500">
  <defs>
    <style>
      .cls-1 {
        fill: #fdce5b;
      }

      .cls-2 {
        fill: #a0c092;
      }
    </style>
  </defs>
  <path class="cls-1" d="M1585.41,1242.49c-.25,22.84-4.86,45.02-13.67,66.02-32.42,77.92-78.11,145.28-135.8,200.23-56.58,53.88-121.66,96.01-193.42,125.21-50.7,20.62-103.21,34.01-156.09,39.78-51.95,5.69-103.82,4.86-154.16-2.5-50.36-7.34-99.94-21.22-147.35-41.23-47.59-20.06-92.41-46.26-133.15-77.85-40.57-31.45-77.38-68.48-109.42-110.05-32.36-41.98-59.2-88.91-79.75-139.43-19.87-48.87-33.18-99.8-39.53-151.36-6.28-50.85-6.3-102.14-.09-152.42,6.25-50.42,18.93-100.23,37.68-148.03,18.96-48.29,44.35-94.06,75.5-135.96,31.14-41.9,68.44-80.08,110.89-113.53,42.94-33.79,91.65-61.88,144.82-83.51,24.01-9.76,48.53-17.92,73.49-24.43.16-.04.33-.09.49-.13,22.03-5.55,43.96,10.11,46.18,32.72,2.87,29.34,11.15,58.28,24.65,85.15,17.25,34.39,42.32,58.22,74.51,70.86,4.39,1.72,32.58,6.7,39.05,6.7.5,0,.99-.02,1.5-.03,39.43-1.58,71.7-15.25,95.41-26.99,37.33-18.48,69.75-45.78,93.75-78.95,3.6-4.97,7.02-10.09,10.25-15.33,12.68-20.58,41.38-24.29,58.72-7.46.13.13.26.25.39.38,16.23,16.1,29.15,35.39,37.99,57.12,17.72,43.58,17.19,90.05-1.52,134.42-18.45,43.75-51.83,76.48-96.55,94.66-43.81,17.82-89.74,17.62-132.82-.56-33.46-14.1-65.53-20.88-98.04-20.69-33.4.2-64.64,6.39-95.5,18.93-31.69,12.89-58.11,30.41-80.73,53.49-23.66,24.11-41.31,50.29-54,80.1-12.55,29.43-19,60.07-19.69,93.68-.68,32.64,5.46,64.41,18.76,97.13,12.74,31.31,30.08,57.77,53.02,80.93,23.56,23.81,49.43,41.78,79.04,54.93,29.3,13.03,59.93,19.98,93.64,21.24,32.05,1.19,63.46-4.67,96.06-17.92,33.6-13.67,61.01-31.04,83.83-53.12,22.45-21.7,40.33-48.48,54.68-81.83l1.5-3.34c19.45-41.45,52.08-72.46,94.32-89.64,42.17-17.16,86.75-17.9,128.93-2.14l.28.09c23.98,9.03,45.11,23.01,62.83,41.54,15.84,16.63,28.06,35.45,36.43,55.99,8.67,21.33,12.95,43.9,12.71,67.1Z"/>
  <path class="cls-2" d="M1140.33,448.17c5.12-6.35,2.78-14.71-1.44-17.98-6.28-4.86-13.7-3.83-18.69,2.08l-22.73,26.94c-41.27,54.82-65.26,119.06-72.68,188.17-25.37-9.96-42.88-29.05-54.84-52.89-20.73-41.32-27.26-89.01-17.19-134.42,7.57-34.12,23.54-64.24,45.26-91.57,47.3-59.53,115.3-98.72,190.01-111.25,7.93-1.33,12.73,2.45,16.8,8.74,38.04,58.76,54.86,128.62,44.92,197.83-10.32,71.85-54.04,132.31-119.14,164.54-25.22,12.49-50.83,21.97-80.39,23.16,6.34-60.88,26.63-117.35,60.33-166.45l29.76-36.88Z"/>
</svg>
