<svg xmlns="http://www.w3.org/2000/svg" width="360" height="360" viewBox="0 0 360 360">
  <g fill="none" stroke="#253d79" stroke-width="5" stroke-linecap="round" stroke-linejoin="round">
    <path d="M42 80h48l18 54H64z"/>
    <path d="M54 80c8-24 30-34 58-30"/>
    <circle cx="70" cy="154" r="10"/>
    <circle cx="116" cy="154" r="10"/>
    <path d="M224 42h42v70h-42z"/>
    <path d="M236 42V28h18v14"/>
    <path d="M230 72h30"/>
    <path d="M256 194c28 0 50 20 50 44s-22 44-50 44-50-20-50-44 22-44 50-44z"/>
    <path d="M238 239h36"/>
    <path d="M256 221v36"/>
  </g>
  <g fill="none" stroke="#a0c092" stroke-width="5" stroke-linecap="round" stroke-linejoin="round">
    <path d="M70 248h78"/>
    <path d="M90 220l-20 28 20 28"/>
    <path d="M128 220l20 28-20 28"/>
    <path d="M182 110c0-20 16-36 36-36s36 16 36 36-16 36-36 36-36-16-36-36z"/>
    <path d="M205 146l-12 38h50l-12-38"/>
  </g>
  <g fill="none" stroke="#fdce5b" stroke-width="6" stroke-linecap="round" stroke-linejoin="round">
    <path d="M300 88c18 0 32 14 32 32s-14 32-32 32-32-14-32-32 14-32 32-32z"/>
    <path d="M288 120h24"/>
    <path d="M300 108v24"/>
    <path d="M150 36l12 20 24 6-16 18 2 24-22-10-22 10 2-24-16-18 24-6z"/>
    <path d="M48 310c18-18 42-18 60 0"/>
  </g>
</svg>
